<svg id="Hotel_Overlook" data-name="Hotel Overlook" xmlns="http://www.w3.org/2000/svg" viewBox="0 0 500.45 115.84"><defs><style>.cls-1{fill:#fff;}.cls-2{fill:red;}.cls-3{fill:none;stroke:#aaa;stroke-miterlimit:10;}</style></defs><path class="cls-1" d="M55.83,110.64h-3V89.57h-25v21.07h-3V67.8h3v19h25v-19h3Z" transform="translate(-24.81 -39)"/><path class="cls-1" d="M104,89.16q0,10.2-5.1,16.13t-14.06,5.93q-8.94,0-14-5.93T65.68,89.1q0-10.21,5.14-16.1t14.05-5.87q9,0,14,5.9T104,89.16Zm-35,0q0,9.2,4.1,14.23t11.78,5q7.72,0,11.82-5t4.09-14.27q0-9.25-4.09-14.19T84.87,70q-7.65,0-11.8,5T68.93,89.16Z" transform="translate(-24.81 -39)"/><path class="cls-1" d="M125,110.64h-3v-40H108V67.8h30.85v2.82H125Z" transform="translate(-24.81 -39)"/><path class="cls-1" d="M168.66,110.64H145.25V67.8h23.41v2.76H148.24v16.2h19.27v2.75H148.24v18.37h20.42Z" transform="translate(-24.81 -39)"/><path class="cls-1" d="M178.35,110.64V67.8h3v40h20.42v2.82Z" transform="translate(-24.81 -39)"/><path class="cls-1" d="M260.74,89.16q0,10.2-5.1,16.13t-14.06,5.93q-8.94,0-14-5.93t-5.1-16.19q0-10.21,5.15-16.1t14-5.87q9,0,14,5.9T260.74,89.16Zm-35,0q0,9.2,4.1,14.23t11.78,5q7.72,0,11.82-5t4.08-14.27q0-9.25-4.08-14.19T241.63,70q-7.63,0-11.79,5T225.7,89.16Z" transform="translate(-24.81 -39)"/><path class="cls-1" d="M295.89,67.8h3.25l-16,42.84h-2.64l-16-42.84h3.2L278.49,97q2.46,6.58,3.31,9.9c.39-1.47,1.16-3.74,2.31-6.83Z" transform="translate(-24.81 -39)"/><path class="cls-1" d="M328.62,110.64H305.21V67.8h23.41v2.76H308.2v16.2h19.27v2.75H308.2v18.37h20.42Z" transform="translate(-24.81 -39)"/><path class="cls-1" d="M341.3,92v18.67h-3V67.8h10.2q8,0,11.78,3t3.8,8.86a11.57,11.57,0,0,1-2.27,7.27,12.55,12.55,0,0,1-6.9,4.24l11.64,19.52H363L351.94,92Zm0-2.57h8.18q5.41,0,8.4-2.42c2-1.61,3-4,3-7.13s-1-5.64-2.93-7.12-5.13-2.23-9.55-2.23H341.3Z" transform="translate(-24.81 -39)"/><path class="cls-1" d="M374,110.64V67.8h3v40h20.42v2.82Z" transform="translate(-24.81 -39)"/><path class="cls-1" d="M440.76,89.16q0,10.2-5.09,16.13t-14.07,5.93q-8.93,0-14-5.93t-5.1-16.19q0-10.21,5.15-16.1t14-5.87q9,0,14,5.9T440.76,89.16Zm-35,0q0,9.2,4.1,14.23t11.77,5q7.74,0,11.83-5t4.08-14.27q0-9.25-4.08-14.19T421.66,70c-5.09,0-9,1.66-11.79,5S405.73,83.05,405.73,89.16Z" transform="translate(-24.81 -39)"/><path class="cls-1" d="M486.61,89.16q0,10.2-5.09,16.13t-14.07,5.93q-8.93,0-14-5.93t-5.1-16.19q0-10.21,5.14-16.1t14.05-5.87q9,0,14,5.9T486.61,89.16Zm-35,0q0,9.2,4.1,14.23t11.77,5q7.74,0,11.83-5t4.08-14.27q0-9.25-4.08-14.19T467.51,70c-5.09,0-9,1.66-11.79,5S451.58,83.05,451.58,89.16Z" transform="translate(-24.81 -39)"/><path class="cls-1" d="M525.26,110.64h-3.67L505.16,88l-5.71,5v17.58h-3V67.8h3V90.07l4.74-4.75L521,67.8h3.81L507.24,85.91Z" transform="translate(-24.81 -39)"/><polygon class="cls-2" points="291.93 115.84 298.7 111.7 305.48 115.84 303.63 108.12 309.66 102.96 301.75 102.33 298.7 95 295.66 102.33 287.75 102.96 293.78 108.12 291.93 115.84"/><polygon class="cls-2" points="316.49 115.84 323.26 111.7 330.03 115.84 328.19 108.12 334.21 102.96 326.3 102.33 323.26 95 320.21 102.33 312.3 102.96 318.33 108.12 316.49 115.84"/><polygon class="cls-2" points="341.04 115.84 347.81 111.7 354.58 115.84 352.74 108.12 358.77 102.96 350.86 102.33 347.81 95 344.77 102.33 336.86 102.96 342.89 108.12 341.04 115.84"/><polygon class="cls-2" points="365.6 115.84 372.37 111.7 379.14 115.84 377.29 108.12 383.32 102.96 375.41 102.33 372.37 95 369.32 102.33 361.41 102.96 367.44 108.12 365.6 115.84"/><polygon class="cls-2" points="267.38 115.84 274.15 111.7 280.92 115.84 279.07 108.12 285.11 102.96 277.19 102.33 274.15 95 271.1 102.33 263.19 102.96 269.22 108.12 267.38 115.84"/><line class="cls-3" x1="494.19" y1="0.5" x2="150.69" y2="0.5"/><line class="cls-3" x1="258.69" y1="105.5" x2="150.69" y2="105.5"/><line class="cls-3" x1="493.69" y1="105.5" x2="386.69" y2="105.5"/></svg>
